# Blender 5.0.1
# www.blender.org
mtllib anvil.mtl
o Cube
v -0.330000 -0.255353 0.700000
v -0.630000 1.000000 1.000000
v -0.330000 -0.256469 -0.700000
v -0.630000 1.000000 -1.000000
v 1.070000 -0.255353 0.700000
v 1.370000 1.000000 1.000000
v 1.070000 -0.256469 -0.700000
v 1.370000 1.000000 -1.000000
v -0.630000 -0.255114 1.650580
v 0.270000 0.800000 3.199188
v 0.270000 1.000000 3.199188
v -0.630000 1.000000 1.650580
v 1.370000 1.000000 1.650580
v 0.470000 1.000000 3.199188
v 0.470000 0.800000 3.199188
v 1.370000 -0.255114 1.650580
v -0.630000 -0.255114 1.649594
v 1.370000 -0.255114 1.649594
v -0.630000 1.000000 1.649594
v 1.370000 1.000000 1.649594
v -0.630000 1.000000 -1.500000
v -0.130000 1.000000 -3.500000
v -0.130000 0.743292 -3.500000
v -0.630000 -0.256708 -1.500000
v 0.870000 0.743292 -3.500000
v 1.370000 -0.256708 -1.500000
v 1.370000 1.000000 -1.500000
v 0.870000 1.000000 -3.500000
v -0.330000 -0.255672 0.300000
v 0.370000 -0.256469 -0.700000
v 1.070000 -0.255672 0.300000
v 0.370000 -0.255353 0.700000
v 0.370000 -0.255911 0.000000
v -0.330000 -0.256150 -0.300000
v -0.630000 -0.255114 1.000000
v 0.370000 -0.255114 1.000000
v 1.370000 -0.255114 1.000000
v 1.070000 -0.256150 -0.300000
v 0.370000 -0.255672 0.300000
v 0.370000 -0.256708 -1.000000
v -0.630000 -0.256708 -1.000000
v 1.370000 -0.255911 0.000000
v 1.370000 -0.256708 -1.000000
v -0.630000 -0.255911 0.000000
v 0.370000 -0.256150 -0.300000
v 0.370000 -1.255672 0.300000
v 0.370000 -1.255353 0.700000
v 0.370000 -1.256469 -0.700000
v 0.370000 -1.256150 -0.300000
v -0.330000 -1.255672 0.300000
v -0.330000 -1.255353 0.700000
v 1.070000 -1.255353 0.700000
v 1.070000 -1.255672 0.300000
v -0.330000 -1.256469 -0.700000
v 1.070000 -1.256150 -0.300000
v 1.070000 -1.256469 -0.700000
v -0.330000 -1.256150 -0.300000
vn -1.0000 -0.0000 -0.0000
vn 1.0000 -0.0000 -0.0000
vn -0.0000 1.0000 -0.0000
vn -0.8646 -0.0000 0.5025
vn 0.8646 -0.0000 0.5025
vn -0.0000 -0.8264 0.5631
vn -0.0000 -0.0000 1.0000
vn -0.0000 -1.0000 -0.0000
vn -0.9701 -0.0000 -0.2425
vn -0.0000 -0.8944 -0.4472
vn 0.9701 -0.0000 -0.2425
vn -0.0000 -0.0000 -1.0000
vn -0.0000 -1.0000 0.0008
vt 0.375000 0.000000
vt 0.625000 0.000000
vt 0.625000 0.250000
vt 0.375000 0.250000
vt 0.375000 0.125000
vt 0.375000 0.500000
vt 0.625000 0.500000
vt 0.625000 0.750000
vt 0.375000 0.750000
vt 0.375000 0.625000
vt 0.162500 0.712500
vt 0.162500 0.662500
vt 0.875000 0.500000
vt 0.875000 0.750000
vt 0.487500 0.887500
vt 0.512500 0.887500
vt 0.625000 1.000000
vt 0.375000 1.000000
vt 0.512500 0.862500
vt 0.487500 0.862500
vt 0.125000 0.750000
vt 0.250000 0.750000
vt 0.525534 0.312500
vt 0.474466 0.312500
vt 0.474466 0.437500
vt 0.525534 0.437500
vt 0.250000 0.500000
vt 0.125000 0.500000
vt 0.337500 0.587500
vt 0.250000 0.587500
vt 0.250000 0.712500
vt 0.337500 0.537500
vt 0.125000 0.625000
vt 0.337500 0.712500
vt 0.337500 0.662500
vt 0.250000 0.662500
vt 0.250000 0.625000
vt 0.250000 0.537500
vt 0.162500 0.537500
vt 0.162500 0.587500
s 0
f 35/1/1 2/2/1 4/3/1 41/4/1 44/5/1
f 43/6/2 8/7/2 6/8/2 37/9/2 42/10/2
f 1/11/1 29/12/1 50/12/1 51/11/1
f 8/7/3 4/13/3 2/14/3 6/8/3
f 10/15/4 11/16/4 12/17/4 9/18/4
f 14/19/5 15/20/5 16/9/5 13/8/5
f 9/18/6 16/9/6 15/20/6 10/15/6
f 13/8/3 12/17/3 11/16/3 14/19/3
f 15/20/7 14/19/7 11/16/7 10/15/7
f 17/21/8 18/9/8 16/9/8 9/21/8
f 19/2/1 17/1/1 9/1/1 12/2/1
f 20/8/3 19/14/3 12/14/3 13/8/3
f 18/9/2 20/8/2 13/8/2 16/9/2
f 37/9/2 6/8/2 20/8/2 18/9/2
f 6/8/3 2/14/3 19/14/3 20/8/3
f 2/2/1 35/1/1 17/1/1 19/2/1
f 35/21/8 36/22/8 37/9/8 18/9/8 17/21/8
f 22/23/9 23/24/9 24/4/9 21/3/9
f 26/6/10 24/4/10 23/24/10 25/25/10
f 21/3/3 27/7/3 28/26/3 22/23/3
f 27/7/11 26/6/11 25/25/11 28/26/11
f 41/4/1 4/3/1 21/3/1 24/4/1
f 23/24/12 22/23/12 28/26/12 25/25/12
f 4/13/3 8/7/3 27/7/3 21/13/3
f 43/6/8 40/27/8 41/28/8 24/28/8 26/6/8
f 8/7/2 43/6/2 26/6/2 27/7/2
f 38/29/7 45/30/7 49/30/7 55/29/7
f 32/31/7 1/11/7 51/11/7 47/31/7
f 7/32/2 38/29/2 55/29/2 56/32/2
f 29/12/13 1/11/13 35/21/13 44/33/13
f 32/31/13 5/34/13 37/9/13 36/22/13
f 5/34/13 31/35/13 42/10/13 37/9/13
f 1/11/13 32/31/13 36/22/13 35/21/13
f 39/36/13 29/12/13 44/33/13 33/37/13
f 31/35/13 39/36/13 33/37/13 42/10/13
f 30/38/13 3/39/13 41/28/13 40/27/13
f 38/29/13 7/32/13 43/6/13 42/10/13
f 3/39/13 34/40/13 44/33/13 41/28/13
f 7/32/13 30/38/13 40/27/13 43/6/13
f 34/40/13 45/30/13 33/37/13 44/33/13
f 45/30/13 38/29/13 42/10/13 33/37/13
f 46/36/13 53/35/13 52/34/13 47/31/13
f 50/12/13 46/36/13 47/31/13 51/11/13
f 54/39/13 48/38/13 49/30/13 57/40/13
f 48/38/13 56/32/13 55/29/13 49/30/13
f 34/40/1 3/39/1 54/39/1 57/40/1
f 29/12/12 39/36/12 46/36/12 50/12/12
f 5/34/7 32/31/7 47/31/7 52/34/7
f 30/38/12 7/32/12 56/32/12 48/38/12
f 39/36/12 31/35/12 53/35/12 46/36/12
f 3/39/12 30/38/12 48/38/12 54/39/12
f 31/35/2 5/34/2 52/34/2 53/35/2
f 45/30/7 34/40/7 57/40/7 49/30/7
